<mxfile host="app.diagrams.net" modified="2023-04-30T02:19:34.566Z" agent="Mozilla/5.0 (Windows NT 10.0; Win64; x64) AppleWebKit/537.36 (KHTML, like Gecko) Chrome/112.0.0.0 Safari/537.36" etag="5MxV5cmhzCuBFHFao1md" version="21.2.3" type="device">
  <diagram name="Page-1" id="jLnL63d28ECAaQiL935l">
    <mxGraphModel dx="1434" dy="756" grid="1" gridSize="10" guides="1" tooltips="1" connect="1" arrows="1" fold="1" page="1" pageScale="1" pageWidth="850" pageHeight="1100" background="#FFFFFF" math="0" shadow="0">
      <root>
        <mxCell id="0" />
        <mxCell id="1" parent="0" />
        <mxCell id="pWWXd3AjgrICyKJDim29-2" value="User" style="rounded=0;whiteSpace=wrap;html=1;" parent="1" vertex="1">
          <mxGeometry x="330" y="80" width="140" height="70" as="geometry" />
        </mxCell>
        <mxCell id="pWWXd3AjgrICyKJDim29-3" value="File" style="rounded=0;whiteSpace=wrap;html=1;" parent="1" vertex="1">
          <mxGeometry x="330" y="440" width="140" height="70" as="geometry" />
        </mxCell>
        <mxCell id="pWWXd3AjgrICyKJDim29-4" value="Queue" style="rhombus;whiteSpace=wrap;html=1;" parent="1" vertex="1">
          <mxGeometry x="345" y="250" width="110" height="90" as="geometry" />
        </mxCell>
        <mxCell id="pWWXd3AjgrICyKJDim29-5" value="" style="endArrow=none;html=1;rounded=0;exitX=0.5;exitY=0;exitDx=0;exitDy=0;entryX=0.5;entryY=1;entryDx=0;entryDy=0;" parent="1" source="pWWXd3AjgrICyKJDim29-4" target="pWWXd3AjgrICyKJDim29-2" edge="1">
          <mxGeometry width="50" height="50" relative="1" as="geometry">
            <mxPoint x="400" y="300" as="sourcePoint" />
            <mxPoint x="450" y="250" as="targetPoint" />
          </mxGeometry>
        </mxCell>
        <mxCell id="pWWXd3AjgrICyKJDim29-6" value="" style="endArrow=none;html=1;rounded=0;exitX=0.5;exitY=1;exitDx=0;exitDy=0;entryX=0.5;entryY=0;entryDx=0;entryDy=0;" parent="1" source="pWWXd3AjgrICyKJDim29-4" target="pWWXd3AjgrICyKJDim29-3" edge="1">
          <mxGeometry width="50" height="50" relative="1" as="geometry">
            <mxPoint x="400" y="300" as="sourcePoint" />
            <mxPoint x="450" y="250" as="targetPoint" />
          </mxGeometry>
        </mxCell>
        <mxCell id="pWWXd3AjgrICyKJDim29-7" value="&lt;u&gt;ID&lt;/u&gt;" style="ellipse;whiteSpace=wrap;html=1;" parent="1" vertex="1">
          <mxGeometry x="520" y="70" width="90" height="40" as="geometry" />
        </mxCell>
        <mxCell id="pWWXd3AjgrICyKJDim29-8" value="Name" style="ellipse;whiteSpace=wrap;html=1;" parent="1" vertex="1">
          <mxGeometry x="520" y="120" width="90" height="40" as="geometry" />
        </mxCell>
        <mxCell id="pWWXd3AjgrICyKJDim29-9" value="" style="endArrow=none;html=1;rounded=0;exitX=1;exitY=0.25;exitDx=0;exitDy=0;entryX=0;entryY=0.5;entryDx=0;entryDy=0;" parent="1" source="pWWXd3AjgrICyKJDim29-2" target="pWWXd3AjgrICyKJDim29-7" edge="1">
          <mxGeometry width="50" height="50" relative="1" as="geometry">
            <mxPoint x="400" y="210" as="sourcePoint" />
            <mxPoint x="450" y="160" as="targetPoint" />
          </mxGeometry>
        </mxCell>
        <mxCell id="pWWXd3AjgrICyKJDim29-10" value="" style="endArrow=none;html=1;rounded=0;exitX=1;exitY=0.75;exitDx=0;exitDy=0;entryX=0;entryY=0.5;entryDx=0;entryDy=0;" parent="1" source="pWWXd3AjgrICyKJDim29-2" target="pWWXd3AjgrICyKJDim29-8" edge="1">
          <mxGeometry width="50" height="50" relative="1" as="geometry">
            <mxPoint x="480" y="160" as="sourcePoint" />
            <mxPoint x="530" y="152" as="targetPoint" />
          </mxGeometry>
        </mxCell>
        <mxCell id="pWWXd3AjgrICyKJDim29-11" value="&lt;u&gt;ID&lt;/u&gt;" style="ellipse;whiteSpace=wrap;html=1;" parent="1" vertex="1">
          <mxGeometry x="20" y="840" width="90" height="40" as="geometry" />
        </mxCell>
        <mxCell id="pWWXd3AjgrICyKJDim29-12" value="" style="endArrow=none;html=1;rounded=0;exitX=0.25;exitY=1;exitDx=0;exitDy=0;entryX=0.5;entryY=0;entryDx=0;entryDy=0;" parent="1" source="pWWXd3AjgrICyKJDim29-20" target="pWWXd3AjgrICyKJDim29-11" edge="1">
          <mxGeometry width="50" height="50" relative="1" as="geometry">
            <mxPoint x="400" y="420" as="sourcePoint" />
            <mxPoint x="450" y="370" as="targetPoint" />
          </mxGeometry>
        </mxCell>
        <mxCell id="pWWXd3AjgrICyKJDim29-13" value="&lt;u&gt;ID&lt;/u&gt;" style="ellipse;whiteSpace=wrap;html=1;" parent="1" vertex="1">
          <mxGeometry x="520" y="230" width="90" height="40" as="geometry" />
        </mxCell>
        <mxCell id="pWWXd3AjgrICyKJDim29-14" value="Priority" style="ellipse;whiteSpace=wrap;html=1;" parent="1" vertex="1">
          <mxGeometry x="520" y="280" width="90" height="40" as="geometry" />
        </mxCell>
        <mxCell id="pWWXd3AjgrICyKJDim29-15" value="Played" style="ellipse;whiteSpace=wrap;html=1;" parent="1" vertex="1">
          <mxGeometry x="520" y="330" width="90" height="40" as="geometry" />
        </mxCell>
        <mxCell id="pWWXd3AjgrICyKJDim29-16" value="" style="endArrow=none;html=1;rounded=0;exitX=1;exitY=0;exitDx=0;exitDy=0;entryX=0;entryY=0.5;entryDx=0;entryDy=0;" parent="1" source="pWWXd3AjgrICyKJDim29-4" target="pWWXd3AjgrICyKJDim29-13" edge="1">
          <mxGeometry width="50" height="50" relative="1" as="geometry">
            <mxPoint x="400" y="340" as="sourcePoint" />
            <mxPoint x="450" y="290" as="targetPoint" />
          </mxGeometry>
        </mxCell>
        <mxCell id="pWWXd3AjgrICyKJDim29-18" value="" style="endArrow=none;html=1;rounded=0;exitX=1;exitY=0.5;exitDx=0;exitDy=0;entryX=0;entryY=0.5;entryDx=0;entryDy=0;" parent="1" source="pWWXd3AjgrICyKJDim29-4" target="pWWXd3AjgrICyKJDim29-14" edge="1">
          <mxGeometry width="50" height="50" relative="1" as="geometry">
            <mxPoint x="400" y="340" as="sourcePoint" />
            <mxPoint x="450" y="290" as="targetPoint" />
          </mxGeometry>
        </mxCell>
        <mxCell id="pWWXd3AjgrICyKJDim29-19" value="" style="endArrow=none;html=1;rounded=0;exitX=1;exitY=1;exitDx=0;exitDy=0;entryX=0;entryY=0.5;entryDx=0;entryDy=0;" parent="1" source="pWWXd3AjgrICyKJDim29-4" target="pWWXd3AjgrICyKJDim29-15" edge="1">
          <mxGeometry width="50" height="50" relative="1" as="geometry">
            <mxPoint x="400" y="340" as="sourcePoint" />
            <mxPoint x="450" y="290" as="targetPoint" />
          </mxGeometry>
        </mxCell>
        <mxCell id="pWWXd3AjgrICyKJDim29-20" value="Song" style="rounded=0;whiteSpace=wrap;html=1;" parent="1" vertex="1">
          <mxGeometry x="90" y="700" width="140" height="70" as="geometry" />
        </mxCell>
        <mxCell id="pWWXd3AjgrICyKJDim29-21" value="Contributor" style="rounded=0;whiteSpace=wrap;html=1;" parent="1" vertex="1">
          <mxGeometry x="590" y="700" width="140" height="70" as="geometry" />
        </mxCell>
        <mxCell id="pWWXd3AjgrICyKJDim29-22" value="Has" style="rhombus;whiteSpace=wrap;html=1;" parent="1" vertex="1">
          <mxGeometry x="190" y="560" width="110" height="90" as="geometry" />
        </mxCell>
        <mxCell id="pWWXd3AjgrICyKJDim29-23" value="" style="endArrow=none;html=1;rounded=0;exitX=0;exitY=1;exitDx=0;exitDy=0;" parent="1" source="pWWXd3AjgrICyKJDim29-3" target="pWWXd3AjgrICyKJDim29-22" edge="1">
          <mxGeometry width="50" height="50" relative="1" as="geometry">
            <mxPoint x="400" y="530" as="sourcePoint" />
            <mxPoint x="450" y="480" as="targetPoint" />
          </mxGeometry>
        </mxCell>
        <mxCell id="pWWXd3AjgrICyKJDim29-24" value="" style="endArrow=none;html=1;rounded=0;entryX=0.5;entryY=0;entryDx=0;entryDy=0;exitX=0;exitY=1;exitDx=0;exitDy=0;" parent="1" source="pWWXd3AjgrICyKJDim29-22" target="pWWXd3AjgrICyKJDim29-20" edge="1">
          <mxGeometry width="50" height="50" relative="1" as="geometry">
            <mxPoint x="400" y="530" as="sourcePoint" />
            <mxPoint x="450" y="480" as="targetPoint" />
          </mxGeometry>
        </mxCell>
        <mxCell id="pWWXd3AjgrICyKJDim29-25" value="Contributes" style="rhombus;whiteSpace=wrap;html=1;" parent="1" vertex="1">
          <mxGeometry x="350" y="690" width="110" height="90" as="geometry" />
        </mxCell>
        <mxCell id="pWWXd3AjgrICyKJDim29-27" value="" style="endArrow=none;html=1;rounded=0;entryX=1;entryY=0.5;entryDx=0;entryDy=0;exitX=0;exitY=0.5;exitDx=0;exitDy=0;" parent="1" source="pWWXd3AjgrICyKJDim29-21" target="pWWXd3AjgrICyKJDim29-25" edge="1">
          <mxGeometry width="50" height="50" relative="1" as="geometry">
            <mxPoint x="420" y="570" as="sourcePoint" />
            <mxPoint x="450" y="510" as="targetPoint" />
          </mxGeometry>
        </mxCell>
        <mxCell id="pWWXd3AjgrICyKJDim29-28" value="&lt;u&gt;ID&lt;/u&gt;" style="ellipse;whiteSpace=wrap;html=1;" parent="1" vertex="1">
          <mxGeometry x="190" y="410" width="90" height="40" as="geometry" />
        </mxCell>
        <mxCell id="pWWXd3AjgrICyKJDim29-29" value="&lt;u&gt;ID&lt;/u&gt;" style="ellipse;whiteSpace=wrap;html=1;" parent="1" vertex="1">
          <mxGeometry x="570" y="840" width="90" height="40" as="geometry" />
        </mxCell>
        <mxCell id="pWWXd3AjgrICyKJDim29-31" value="" style="endArrow=none;html=1;rounded=0;entryX=0;entryY=0.25;entryDx=0;entryDy=0;exitX=1;exitY=0.5;exitDx=0;exitDy=0;" parent="1" source="pWWXd3AjgrICyKJDim29-28" target="pWWXd3AjgrICyKJDim29-3" edge="1">
          <mxGeometry width="50" height="50" relative="1" as="geometry">
            <mxPoint x="400" y="690" as="sourcePoint" />
            <mxPoint x="450" y="640" as="targetPoint" />
          </mxGeometry>
        </mxCell>
        <mxCell id="pWWXd3AjgrICyKJDim29-32" value="" style="endArrow=none;html=1;rounded=0;entryX=0.25;entryY=1;entryDx=0;entryDy=0;exitX=0.5;exitY=0;exitDx=0;exitDy=0;" parent="1" source="pWWXd3AjgrICyKJDim29-29" target="pWWXd3AjgrICyKJDim29-21" edge="1">
          <mxGeometry width="50" height="50" relative="1" as="geometry">
            <mxPoint x="400" y="690" as="sourcePoint" />
            <mxPoint x="450" y="640" as="targetPoint" />
          </mxGeometry>
        </mxCell>
        <mxCell id="pWWXd3AjgrICyKJDim29-33" value="Name" style="ellipse;whiteSpace=wrap;html=1;" parent="1" vertex="1">
          <mxGeometry x="670" y="840" width="90" height="40" as="geometry" />
        </mxCell>
        <mxCell id="pWWXd3AjgrICyKJDim29-34" value="" style="endArrow=none;html=1;rounded=0;entryX=0.75;entryY=1;entryDx=0;entryDy=0;exitX=0.5;exitY=0;exitDx=0;exitDy=0;" parent="1" source="pWWXd3AjgrICyKJDim29-33" target="pWWXd3AjgrICyKJDim29-21" edge="1">
          <mxGeometry width="50" height="50" relative="1" as="geometry">
            <mxPoint x="400" y="750" as="sourcePoint" />
            <mxPoint x="450" y="700" as="targetPoint" />
          </mxGeometry>
        </mxCell>
        <mxCell id="pWWXd3AjgrICyKJDim29-35" value="&lt;u&gt;Role&lt;/u&gt;" style="ellipse;whiteSpace=wrap;html=1;" parent="1" vertex="1">
          <mxGeometry x="360" y="620" width="90" height="40" as="geometry" />
        </mxCell>
        <mxCell id="pWWXd3AjgrICyKJDim29-36" value="" style="endArrow=none;html=1;rounded=0;entryX=0.5;entryY=1;entryDx=0;entryDy=0;exitX=0.5;exitY=0;exitDx=0;exitDy=0;" parent="1" source="pWWXd3AjgrICyKJDim29-25" target="pWWXd3AjgrICyKJDim29-35" edge="1">
          <mxGeometry width="50" height="50" relative="1" as="geometry">
            <mxPoint x="630" y="600" as="sourcePoint" />
            <mxPoint x="420" y="590" as="targetPoint" />
          </mxGeometry>
        </mxCell>
        <mxCell id="pWWXd3AjgrICyKJDim29-37" value="(1, n)" style="text;html=1;strokeColor=none;fillColor=none;align=center;verticalAlign=middle;whiteSpace=wrap;rounded=0;" parent="1" vertex="1">
          <mxGeometry x="395" y="190" width="60" height="30" as="geometry" />
        </mxCell>
        <mxCell id="pWWXd3AjgrICyKJDim29-38" value="(1, n)" style="text;html=1;strokeColor=none;fillColor=none;align=center;verticalAlign=middle;whiteSpace=wrap;rounded=0;" parent="1" vertex="1">
          <mxGeometry x="395" y="380" width="60" height="30" as="geometry" />
        </mxCell>
        <mxCell id="pWWXd3AjgrICyKJDim29-39" value="(1, 1)" style="text;html=1;strokeColor=none;fillColor=none;align=center;verticalAlign=middle;whiteSpace=wrap;rounded=0;" parent="1" vertex="1">
          <mxGeometry x="100" y="650" width="60" height="30" as="geometry" />
        </mxCell>
        <mxCell id="pWWXd3AjgrICyKJDim29-40" value="(1, n)" style="text;html=1;strokeColor=none;fillColor=none;align=center;verticalAlign=middle;whiteSpace=wrap;rounded=0;" parent="1" vertex="1">
          <mxGeometry x="290" y="535" width="60" height="30" as="geometry" />
        </mxCell>
        <mxCell id="pWWXd3AjgrICyKJDim29-41" value="(1, n)" style="text;html=1;strokeColor=none;fillColor=none;align=center;verticalAlign=middle;whiteSpace=wrap;rounded=0;" parent="1" vertex="1">
          <mxGeometry x="510" y="700" width="60" height="30" as="geometry" />
        </mxCell>
        <mxCell id="pWWXd3AjgrICyKJDim29-42" value="(1, n)" style="text;html=1;strokeColor=none;fillColor=none;align=center;verticalAlign=middle;whiteSpace=wrap;rounded=0;" parent="1" vertex="1">
          <mxGeometry x="250" y="700" width="60" height="30" as="geometry" />
        </mxCell>
        <mxCell id="1eaoJKPbckSzn4keecf2-1" value="Name" style="ellipse;whiteSpace=wrap;html=1;" parent="1" vertex="1">
          <mxGeometry x="120" y="840" width="90" height="40" as="geometry" />
        </mxCell>
        <mxCell id="1eaoJKPbckSzn4keecf2-2" value="Artist/Band" style="ellipse;whiteSpace=wrap;html=1;" parent="1" vertex="1">
          <mxGeometry x="220" y="840" width="90" height="40" as="geometry" />
        </mxCell>
        <mxCell id="1eaoJKPbckSzn4keecf2-3" value="" style="endArrow=none;html=1;rounded=0;entryX=0.5;entryY=0;entryDx=0;entryDy=0;exitX=0.5;exitY=1;exitDx=0;exitDy=0;" parent="1" source="pWWXd3AjgrICyKJDim29-20" target="1eaoJKPbckSzn4keecf2-1" edge="1">
          <mxGeometry width="50" height="50" relative="1" as="geometry">
            <mxPoint x="330" y="470" as="sourcePoint" />
            <mxPoint x="280" y="470" as="targetPoint" />
          </mxGeometry>
        </mxCell>
        <mxCell id="1eaoJKPbckSzn4keecf2-5" value="" style="endArrow=none;html=1;rounded=0;entryX=0.5;entryY=0;entryDx=0;entryDy=0;exitX=0.75;exitY=1;exitDx=0;exitDy=0;" parent="1" source="pWWXd3AjgrICyKJDim29-20" target="1eaoJKPbckSzn4keecf2-2" edge="1">
          <mxGeometry width="50" height="50" relative="1" as="geometry">
            <mxPoint x="320" y="510" as="sourcePoint" />
            <mxPoint x="450" y="410" as="targetPoint" />
          </mxGeometry>
        </mxCell>
        <mxCell id="bS1gosjb5a5UEJvufa9c-1" value="Version" style="ellipse;whiteSpace=wrap;html=1;" parent="1" vertex="1">
          <mxGeometry x="190" y="470" width="90" height="40" as="geometry" />
        </mxCell>
        <mxCell id="bS1gosjb5a5UEJvufa9c-2" value="" style="endArrow=none;html=1;rounded=0;exitX=1;exitY=0.5;exitDx=0;exitDy=0;entryX=0;entryY=0.5;entryDx=0;entryDy=0;" parent="1" source="bS1gosjb5a5UEJvufa9c-1" target="pWWXd3AjgrICyKJDim29-3" edge="1">
          <mxGeometry width="50" height="50" relative="1" as="geometry">
            <mxPoint x="400" y="490" as="sourcePoint" />
            <mxPoint x="450" y="440" as="targetPoint" />
          </mxGeometry>
        </mxCell>
        <mxCell id="vrJf_o9dHFF2LoHqMvHt-2" value="" style="endArrow=none;html=1;rounded=0;exitX=1;exitY=0.5;exitDx=0;exitDy=0;" parent="1" source="pWWXd3AjgrICyKJDim29-20" target="pWWXd3AjgrICyKJDim29-25" edge="1">
          <mxGeometry width="50" height="50" relative="1" as="geometry">
            <mxPoint x="400" y="630" as="sourcePoint" />
            <mxPoint x="450" y="580" as="targetPoint" />
          </mxGeometry>
        </mxCell>
        <mxCell id="d9GcYeO2QHnV7zo_zrDF-1" value="Payment" style="ellipse;whiteSpace=wrap;html=1;" vertex="1" parent="1">
          <mxGeometry x="200" y="280" width="90" height="40" as="geometry" />
        </mxCell>
        <mxCell id="d9GcYeO2QHnV7zo_zrDF-2" value="" style="endArrow=none;html=1;rounded=0;entryX=0;entryY=0.5;entryDx=0;entryDy=0;exitX=1;exitY=0.5;exitDx=0;exitDy=0;" edge="1" parent="1" source="d9GcYeO2QHnV7zo_zrDF-1" target="pWWXd3AjgrICyKJDim29-4">
          <mxGeometry width="50" height="50" relative="1" as="geometry">
            <mxPoint x="400" y="400" as="sourcePoint" />
            <mxPoint x="450" y="350" as="targetPoint" />
          </mxGeometry>
        </mxCell>
      </root>
    </mxGraphModel>
  </diagram>
</mxfile>
